# xmcd
#
# Track frame offsets: 
#        150
#        11638
#        36300
#        62415
#        76938
#        110905
#        157548
#        179018
#        211293
#        229415
#
# Disc length: 3754 seconds
#
# Revision: 2
# Processed by: cddbd v1.5.2PL0 Copyright (c) Steve Scherf et al.
# Submitted via: ExactAudioCopy v0.99pb4
#
DISCID=7e0ea80a
DTITLE=Stevie Ray Vaughan - Pride And Joy: Live 1984-1989 - Disc 2
DYEAR=1990
DGENRE=
TTITLE0=House Is A Rockin'
TTITLE1=Tightrope
TTITLE2=Look At Little Sister
TTITLE3=Let Me Love You
TTITLE4=Texas Flood
TTITLE5=Riviera Paradise
TTITLE6=Superstition
TTITLE7=Cold Shot
TTITLE8=Crossfire
TTITLE9=Voodoo Chile (Slight Return)
EXTD=
EXTT0=
EXTT1=
EXTT2=
EXTT3=
EXTT4=
EXTT5=
EXTT6=
EXTT7=
EXTT8=
EXTT9=
PLAYORDER=
